<svg width="698" height="240" viewBox="0 0 698 240" fill="none" xmlns="http://www.w3.org/2000/svg">
<path d="M24.36 98V95.48L35.4 93.68V5H15.6L6.48 28.76H3V2H81.12V28.76H77.52L68.52 5H48.6V93.68L59.64 95.48V98H24.36ZM87.0434 95.6L95.4434 94.4V5.6L87.0434 4.4V2H107.443V48.8C110.403 44.48 113.883 41.08 117.883 38.6C121.883 36.04 126.203 34.76 130.843 34.76C136.603 34.76 141.123 36.2 144.403 39.08C147.763 41.96 149.443 46.24 149.443 51.92V94.4L157.843 95.6V98H130.243V95.6L137.443 94.4V52.16C137.443 48 136.603 44.8 134.923 42.56C133.243 40.24 130.643 39.08 127.123 39.08C123.443 39.08 119.883 40.44 116.443 43.16C113.083 45.8 110.083 49.08 107.443 53V94.4L114.643 95.6V98H87.0434V95.6ZM197.332 99.2C191.412 99.2 186.052 97.88 181.252 95.24C176.452 92.52 172.652 88.72 169.852 83.84C167.052 78.96 165.652 73.32 165.652 66.92C165.652 60.52 167.012 54.92 169.732 50.12C172.532 45.24 176.252 41.48 180.892 38.84C185.612 36.12 190.852 34.76 196.612 34.76C201.652 34.76 206.172 35.88 210.172 38.12C214.172 40.36 217.292 43.48 219.532 47.48C221.772 51.4 222.932 55.92 223.012 61.04H178.852V72.92C178.852 79.96 180.412 85.68 183.532 90.08C186.732 94.4 191.332 96.56 197.332 96.56C202.852 96.56 207.732 95 211.972 91.88C216.212 88.76 218.812 84.72 219.772 79.76H222.532C221.412 85.68 218.572 90.4 214.012 93.92C209.452 97.44 203.892 99.2 197.332 99.2ZM209.812 58.04C209.812 51.08 208.732 45.92 206.572 42.56C204.412 39.12 201.052 37.4 196.492 37.4C191.132 37.4 186.972 39.28 184.012 43.04C181.052 46.8 179.372 51.8 178.972 58.04H209.812ZM267.618 100.4L233.778 6.31999L225.738 4.63999V2H259.098V4.63999L248.178 6.31999L273.978 77.36L291.498 31.52L282.498 6.31999L271.458 4.63999V2H307.098V4.63999L296.778 6.08L322.818 77.24L348.618 10.04L335.058 4.63999V2H360.858V4.63999L351.738 9.92L317.418 100.4H316.458L293.058 35.72L268.578 100.4H267.618ZM371.915 99.2C366.795 99.2 362.595 97.88 359.315 95.24C356.035 92.52 354.395 88.52 354.395 83.24C354.395 75.72 357.555 70.4 363.875 67.28C370.195 64.08 377.515 62.48 385.835 62.48H393.875V53.24C393.875 49.08 393.395 45.88 392.435 43.64C391.555 41.32 390.155 39.72 388.235 38.84C386.315 37.88 383.715 37.4 380.435 37.4C376.675 37.4 373.875 38.16 372.035 39.68C370.195 41.12 369.275 43.08 369.275 45.56C369.275 47.88 370.395 49.4 372.635 50.12C372.635 52.12 371.875 53.88 370.355 55.4C368.835 56.92 367.035 57.68 364.955 57.68C362.715 57.68 360.915 57.08 359.555 55.88C358.195 54.6 357.515 52.68 357.515 50.12C357.515 45.48 359.835 41.76 364.475 38.96C369.115 36.16 374.915 34.76 381.875 34.76C397.875 34.76 405.875 41.72 405.875 55.64V89.96C405.875 91.72 406.235 93.08 406.955 94.04C407.755 94.92 408.875 95.36 410.315 95.36C411.675 95.36 412.755 94.92 413.555 94.04C414.355 93.08 414.755 91.8 414.755 90.2H417.275C417.275 93 416.355 95.2 414.515 96.8C412.755 98.4 410.275 99.2 407.075 99.2C403.395 99.2 400.275 98.16 397.715 96.08C395.235 93.92 393.955 90.6 393.875 86.12C391.955 90.2 388.995 93.4 384.995 95.72C381.075 98.04 376.715 99.2 371.915 99.2ZM378.515 93.92C380.675 93.92 382.875 93.28 385.115 92C387.435 90.72 389.395 88.88 390.995 86.48C392.595 84 393.555 81.04 393.875 77.6V65.12H385.835C379.275 65.12 374.355 66.6 371.075 69.56C367.875 72.44 366.275 76.52 366.275 81.8C366.275 86.2 367.315 89.32 369.395 91.16C371.475 93 374.515 93.92 378.515 93.92ZM419.861 98V95.6L428.861 94.4V5.6L419.861 4.4V2H440.861V94.4L449.261 95.6V98H419.861ZM454.697 98V95.6L463.097 94.4V5.6L454.697 4.4V2H475.097V63.56L502.577 41L492.137 38.24V35.84H514.697V38.24L507.017 41L487.097 57.32L515.177 94.52L521.657 95.6V98H493.577V95.6L500.777 94.4L478.217 64.64L475.097 67.28V94.4L482.297 95.6V98H454.697ZM536.728 21.92C534.488 21.92 532.568 21.16 530.968 19.64C529.368 18.04 528.568 16.12 528.568 13.88C528.568 11.64 529.328 9.76 530.848 8.24C532.448 6.72 534.408 5.96 536.728 5.96C538.888 5.96 540.728 6.72 542.248 8.24C543.768 9.76 544.528 11.64 544.528 13.88C544.528 16.12 543.768 18.04 542.248 19.64C540.728 21.16 538.888 21.92 536.728 21.92ZM524.008 98V95.6L532.408 94.4V39.56L524.008 38.36V35.96H544.408V94.4L552.808 95.6V98H524.008ZM559.076 95.6L567.476 94.4V39.44L559.076 38.24V35.84H579.476V48.8C582.436 44.48 585.916 41.08 589.916 38.6C593.916 36.04 598.236 34.76 602.876 34.76C608.636 34.76 613.156 36.2 616.436 39.08C619.796 41.96 621.476 46.24 621.476 51.92V94.4L629.876 95.6V98H602.276V95.6L609.476 94.4V52.16C609.476 48 608.636 44.8 606.956 42.56C605.276 40.24 602.676 39.08 599.156 39.08C595.476 39.08 591.916 40.44 588.476 43.16C585.116 45.8 582.116 49.08 579.476 53V94.4L586.676 95.6V98H559.076V95.6ZM697.308 30.2C697.308 33.32 696.148 36 693.828 38.24C691.508 40.48 687.828 41.92 682.788 42.56C684.868 45.6 685.908 49.76 685.908 55.04C685.908 61.28 683.668 66.2 679.188 69.8C674.788 73.4 669.188 75.2 662.388 75.2C659.588 75.2 657.028 74.96 654.708 74.48C649.588 74.8 647.028 76.8 647.028 80.48C647.028 82.56 647.868 84.08 649.548 85.04C651.308 86 654.068 86.48 657.828 86.48H671.268C677.748 86.48 682.548 87.8 685.668 90.44C688.868 93.08 690.468 97.6 690.468 104C690.468 108.48 689.308 112.6 686.988 116.36C684.748 120.12 681.468 123.08 677.148 125.24C672.828 127.48 667.668 128.6 661.668 128.6C652.628 128.6 645.948 127.24 641.628 124.52C637.388 121.8 635.268 118.2 635.268 113.72C635.268 111 636.308 108.6 638.388 106.52C640.468 104.44 643.308 103.4 646.908 103.4C647.628 103.4 649.108 103.56 651.348 103.88C648.868 106.52 647.628 109.64 647.628 113.24C647.628 116.68 648.828 119.68 651.228 122.24C653.628 124.8 657.548 126.08 662.988 126.08C667.708 126.08 671.908 125.16 675.588 123.32C679.348 121.56 682.228 119.24 684.228 116.36C686.228 113.48 687.228 110.52 687.228 107.48C687.228 104.12 686.148 101.68 683.988 100.16C681.828 98.72 677.988 98 672.468 98H657.828C652.228 98 647.988 96.92 645.108 94.76C642.308 92.52 640.908 89.24 640.908 84.92C640.908 82.04 641.708 79.52 643.308 77.36C644.988 75.12 647.108 73.68 649.668 73.04C642.708 70.08 639.228 64.08 639.228 55.04C639.228 48.72 641.428 43.76 645.828 40.16C650.228 36.56 655.748 34.76 662.388 34.76C670.788 34.76 676.868 36.52 680.628 40.04C682.868 39.64 684.548 38.92 685.668 37.88C686.788 36.76 687.348 35.52 687.348 34.16C687.348 32.88 686.988 31.92 686.268 31.28C685.548 30.56 684.708 30.2 683.748 30.2C683.748 28.44 684.388 26.92 685.668 25.64C687.028 24.28 688.628 23.6 690.468 23.6C692.468 23.6 694.108 24.2 695.388 25.4C696.668 26.6 697.308 28.2 697.308 30.2ZM674.628 52.04C674.628 47.16 673.588 43.4 671.508 40.76C669.508 38.12 666.468 36.8 662.388 36.8C654.468 36.8 650.508 41.88 650.508 52.04V57.92C650.508 62.64 651.468 66.36 653.388 69.08C655.388 71.8 658.388 73.16 662.388 73.16C666.468 73.16 669.508 71.8 671.508 69.08C673.588 66.36 674.628 62.64 674.628 57.92V52.04Z" fill="#121212"/>
<path d="M54.72 219.2L18.96 126.32V210.68L30.48 215.48V218H4.8V215.48L16.08 210.68V126.32L5.04 124.64V122H31.56L61.68 199.04L92.4 122H116.64V124.64L105.6 126.32V213.68L116.64 215.48V218H81.36V215.48L92.4 213.68V129.92L56.88 219.2H54.72ZM158.146 219.2C152.386 219.2 147.146 217.88 142.426 215.24C137.706 212.52 133.946 208.72 131.146 203.84C128.426 198.88 127.066 193.24 127.066 186.92C127.066 180.6 128.426 175 131.146 170.12C133.946 165.24 137.706 161.48 142.426 158.84C147.146 156.12 152.386 154.76 158.146 154.76C163.906 154.76 169.146 156.12 173.866 158.84C178.586 161.48 182.306 165.24 185.026 170.12C187.826 175 189.226 180.6 189.226 186.92C189.226 193.24 187.826 198.88 185.026 203.84C182.306 208.72 178.586 212.52 173.866 215.24C169.146 217.88 163.906 219.2 158.146 219.2ZM158.146 216.56C164.066 216.56 168.506 214.4 171.466 210.08C174.506 205.76 176.026 200.04 176.026 192.92V180.92C176.026 173.8 174.506 168.12 171.466 163.88C168.506 159.56 164.066 157.4 158.146 157.4C152.226 157.4 147.746 159.56 144.706 163.88C141.746 168.12 140.266 173.8 140.266 180.92V192.92C140.266 200.04 141.746 205.76 144.706 210.08C147.746 214.4 152.226 216.56 158.146 216.56ZM198.068 215.6L206.468 214.4V159.44L198.068 158.24V155.84H218.468V166.88C221.348 163.12 224.588 160.16 228.188 158C231.868 155.84 235.828 154.76 240.068 154.76C244.948 154.76 248.908 155.84 251.948 158C255.068 160.08 257.028 163.24 257.828 167.48C260.708 163.56 263.988 160.48 267.668 158.24C271.348 155.92 275.388 154.76 279.788 154.76C285.468 154.76 289.868 156.2 292.988 159.08C296.188 161.88 297.788 166.16 297.788 171.92V214.4L306.188 215.6V218H278.588V215.6L285.788 214.4V172.16C285.788 167.92 285.028 164.68 283.508 162.44C281.988 160.2 279.508 159.08 276.068 159.08C272.788 159.08 269.588 160.2 266.468 162.44C263.428 164.68 260.668 167.56 258.188 171.08V214.4L265.388 215.6V218H238.868V215.6L246.068 214.4V172.16C246.068 167.92 245.308 164.68 243.788 162.44C242.268 160.2 239.788 159.08 236.348 159.08C233.068 159.08 229.868 160.2 226.748 162.44C223.708 164.68 220.948 167.56 218.468 171.08V214.4L225.668 215.6V218H198.068V215.6ZM345.723 219.2C339.803 219.2 334.443 217.88 329.643 215.24C324.843 212.52 321.043 208.72 318.243 203.84C315.443 198.96 314.043 193.32 314.043 186.92C314.043 180.52 315.403 174.92 318.123 170.12C320.923 165.24 324.643 161.48 329.283 158.84C334.003 156.12 339.243 154.76 345.003 154.76C350.043 154.76 354.563 155.88 358.563 158.12C362.563 160.36 365.683 163.48 367.923 167.48C370.163 171.4 371.323 175.92 371.403 181.04H327.243V192.92C327.243 199.96 328.803 205.68 331.923 210.08C335.123 214.4 339.723 216.56 345.723 216.56C351.243 216.56 356.123 215 360.363 211.88C364.603 208.76 367.203 204.72 368.163 199.76H370.923C369.803 205.68 366.963 210.4 362.403 213.92C357.843 217.44 352.283 219.2 345.723 219.2ZM358.203 178.04C358.203 171.08 357.123 165.92 354.963 162.56C352.803 159.12 349.443 157.4 344.883 157.4C339.523 157.4 335.363 159.28 332.403 163.04C329.443 166.8 327.763 171.8 327.363 178.04H358.203ZM379.888 215.6L388.288 214.4V159.44L379.888 158.24V155.84H400.288V168.8C403.248 164.48 406.728 161.08 410.728 158.6C414.728 156.04 419.048 154.76 423.688 154.76C429.448 154.76 433.968 156.2 437.248 159.08C440.608 161.96 442.288 166.24 442.288 171.92V214.4L450.688 215.6V218H423.088V215.6L430.288 214.4V172.16C430.288 168 429.448 164.8 427.768 162.56C426.088 160.24 423.488 159.08 419.968 159.08C416.288 159.08 412.728 160.44 409.288 163.16C405.928 165.8 402.928 169.08 400.288 173V214.4L407.488 215.6V218H379.888V215.6ZM481.4 219.2C476.12 219.2 471.88 217.88 468.68 215.24C465.56 212.6 464 208.4 464 202.64V159.44L455.48 158.24V155.84H464V145.88L476 142.88V155.84H491.6V158.24L476 159.44V202.4C476 210.88 479.04 215.12 485.12 215.12C486.4 215.12 487.6 214.92 488.72 214.52C489.92 214.12 490.84 213.72 491.48 213.32C492.2 212.92 492.64 212.64 492.8 212.48L494.36 214.4C490.76 217.6 486.44 219.2 481.4 219.2Z" fill="#121212"/>
</svg>
